<?xml version="1.0" encoding="UTF-8" standalone="no"?>
<svg
   xmlns:dc="http://purl.org/dc/elements/1.1/"
   xmlns:cc="http://creativecommons.org/ns#"
   xmlns:rdf="http://www.w3.org/1999/02/22-rdf-syntax-ns#"
   xmlns:svg="http://www.w3.org/2000/svg"
   xmlns="http://www.w3.org/2000/svg"
   xmlns:sodipodi="http://sodipodi.sourceforge.net/DTD/sodipodi-0.dtd"
   xmlns:inkscape="http://www.inkscape.org/namespaces/inkscape"
   width="17.181501"
   height="21.081266"
   viewBox="0 0 17.181501 21.081266"
   version="1.1"
   id="svg22"
   sodipodi:docname="apple_small.svg"
   inkscape:version="1.0.1 (3bc2e813f5, 2020-09-07)">
  <metadata
     id="metadata28">
    <rdf:RDF>
      <cc:Work
         rdf:about="">
        <dc:format>image/svg+xml</dc:format>
        <dc:type
           rdf:resource="http://purl.org/dc/dcmitype/StillImage" />
        <dc:title></dc:title>
      </cc:Work>
    </rdf:RDF>
  </metadata>
  <defs
     id="defs26" />
  <sodipodi:namedview
     pagecolor="#ffffff"
     bordercolor="#666666"
     borderopacity="1"
     objecttolerance="10"
     gridtolerance="10"
     guidetolerance="10"
     inkscape:pageopacity="0"
     inkscape:pageshadow="2"
     inkscape:window-width="1366"
     inkscape:window-height="705"
     id="namedview24"
     showgrid="false"
     fit-margin-top="0"
     fit-margin-left="0"
     fit-margin-right="0"
     fit-margin-bottom="0"
     inkscape:zoom="10.746341"
     inkscape:cx="-9.1915725"
     inkscape:cy="13.06"
     inkscape:window-x="-8"
     inkscape:window-y="32"
     inkscape:window-maximized="1"
     inkscape:current-layer="svg22" />
  <path
     d="m 12.751501,5.09 c -1.74,-0.12 -3.2099998,0.97 -4.0299998,0.97 -0.83,0 -2.12,-0.94 -3.48,-0.92 -1.79,0.03 -3.44,1.04 -4.36000004,2.64 -1.86,3.23 -0.47,8.01 1.34000004,10.63 0.89,1.28 1.94,2.72 3.33,2.67 1.34,-0.05 1.84,-0.86 3.46,-0.86 1.6099998,0 2.0699998,0.86 3.4799998,0.84 1.44,-0.03 2.35,-1.31 3.23,-2.59 1.02,-1.48 1.44,-2.92 1.46,-3 -0.03,-0.01 -2.8,-1.07 -2.83,-4.27 -0.03,-2.67 2.18,-3.95 2.28,-4.01 -1.27,-1.84 -3.2,-2.05 -3.88,-2.1 m -1.07,-1.72 c 0.74,-0.89 1.23,-2.13 1.1,-3.37 -1.06,0.04 -2.34,0.71 -3.1099998,1.6 -0.68,0.79 -1.28,2.05 -1.12,3.26 1.19,0.09 2.3899998,-0.6 3.1299998,-1.49"
     fill="#fffffe"
     id="path20"
     style="fill:#fefeff;fill-opacity:1" />
</svg>
