<?xml version="1.0" encoding="UTF-8" standalone="no"?>
<svg
   xmlns:dc="http://purl.org/dc/elements/1.1/"
   xmlns:cc="http://creativecommons.org/ns#"
   xmlns:rdf="http://www.w3.org/1999/02/22-rdf-syntax-ns#"
   xmlns:svg="http://www.w3.org/2000/svg"
   xmlns="http://www.w3.org/2000/svg"
   xmlns:sodipodi="http://sodipodi.sourceforge.net/DTD/sodipodi-0.dtd"
   xmlns:inkscape="http://www.inkscape.org/namespaces/inkscape"
   width="87.026062mm"
   height="55.311535mm"
   viewBox="0 0 87.026062 55.311535"
   version="1.1"
   id="svg1039"
   inkscape:export-filename="C:\Users\u595440\Documents\MEGAsync\Full Stack\TPO\img\mestria.png"
   inkscape:export-xdpi="95.73555"
   inkscape:export-ydpi="95.73555"
   inkscape:version="1.0.1 (3bc2e813f5, 2020-09-07)"
   sodipodi:docname="maestria_logo.svg">
  <defs
     id="defs1033">
    <filter
       inkscape:collect="always"
       style="color-interpolation-filters:sRGB"
       id="filter993"
       x="-0.00010108145"
       width="1.0002022"
       y="-8.1324331e-05"
       height="1.0001626">
      <feGaussianBlur
         inkscape:collect="always"
         stdDeviation="0.00025442855"
         id="feGaussianBlur995" />
    </filter>
    <filter
       inkscape:collect="always"
       style="color-interpolation-filters:sRGB"
       id="filter997"
       x="-0.00010356197"
       width="1.0002071"
       y="-8.132431e-05"
       height="1.0001626">
      <feGaussianBlur
         inkscape:collect="always"
         stdDeviation="0.00025442855"
         id="feGaussianBlur999" />
    </filter>
    <filter
       inkscape:collect="always"
       style="color-interpolation-filters:sRGB"
       id="filter1001"
       x="-0.00010108144"
       width="1.0002022"
       y="-8.132431e-05"
       height="1.0001626">
      <feGaussianBlur
         inkscape:collect="always"
         stdDeviation="0.00025442855"
         id="feGaussianBlur1003" />
    </filter>
    <filter
       inkscape:collect="always"
       style="color-interpolation-filters:sRGB"
       id="filter1005"
       x="-6.6309884e-05"
       width="1.0001326"
       y="-8.049333e-05"
       height="1.0001611">
      <feGaussianBlur
         inkscape:collect="always"
         stdDeviation="0.00025442855"
         id="feGaussianBlur1007" />
    </filter>
    <filter
       inkscape:collect="always"
       style="color-interpolation-filters:sRGB"
       id="filter1009"
       x="-0.00010108144"
       width="1.0002022"
       y="-8.1324331e-05"
       height="1.0001626">
      <feGaussianBlur
         inkscape:collect="always"
         stdDeviation="0.00025442855"
         id="feGaussianBlur1011" />
    </filter>
    <filter
       inkscape:collect="always"
       style="color-interpolation-filters:sRGB"
       id="filter1013"
       x="-8.205881e-05"
       width="1.0001642"
       y="-8.049333e-05"
       height="1.0001611">
      <feGaussianBlur
         inkscape:collect="always"
         stdDeviation="0.00025442855"
         id="feGaussianBlur1015" />
    </filter>
    <filter
       inkscape:collect="always"
       style="color-interpolation-filters:sRGB"
       id="filter1017"
       x="-9.6460462e-05"
       width="1.0001929"
       y="-8.1324317e-05"
       height="1.0001626">
      <feGaussianBlur
         inkscape:collect="always"
         stdDeviation="0.00025442855"
         id="feGaussianBlur1019" />
    </filter>
    <filter
       inkscape:collect="always"
       style="color-interpolation-filters:sRGB"
       id="filter1021"
       x="-8.011132e-05"
       width="1.0001602"
       y="-8.049333e-05"
       height="1.0001611">
      <feGaussianBlur
         inkscape:collect="always"
         stdDeviation="0.00025442855"
         id="feGaussianBlur1023" />
    </filter>
    <filter
       inkscape:collect="always"
       style="color-interpolation-filters:sRGB"
       id="filter1025"
       x="-7.4880677e-06"
       width="1.000015"
       y="-3.3712258e-05"
       height="1.0000674">
      <feGaussianBlur
         inkscape:collect="always"
         stdDeviation="0.00025442855"
         id="feGaussianBlur1027" />
    </filter>
    <filter
       inkscape:collect="always"
       style="color-interpolation-filters:sRGB"
       id="filter1029"
       x="-0.00010356183"
       width="1.0002071"
       y="-8.132431e-05"
       height="1.0001626">
      <feGaussianBlur
         inkscape:collect="always"
         stdDeviation="0.00025442855"
         id="feGaussianBlur1031" />
    </filter>
  </defs>
  <sodipodi:namedview
     id="base"
     pagecolor="#ffffff"
     bordercolor="#666666"
     borderopacity="1.0"
     inkscape:pageopacity="0.0"
     inkscape:pageshadow="2"
     inkscape:zoom="0.35"
     inkscape:cx="544.83805"
     inkscape:cy="419.53898"
     inkscape:document-units="mm"
     inkscape:current-layer="layer2"
     inkscape:document-rotation="0"
     showgrid="false"
     showguides="true"
     inkscape:guide-bbox="true"
     inkscape:lockguides="true"
     inkscape:snap-bbox="false"
     inkscape:snap-global="true"
     inkscape:window-width="1366"
     inkscape:window-height="705"
     inkscape:window-x="-8"
     inkscape:window-y="32"
     inkscape:window-maximized="1">
    <sodipodi:guide
       position="84.523986,197.8096"
       orientation="1,0"
       id="guide1711"
       inkscape:locked="true" />
    <sodipodi:guide
       position="75.804318,200.91661"
       orientation="0,-1"
       id="guide1713"
       inkscape:locked="true" />
  </sodipodi:namedview>
  <metadata
     id="metadata1036">
    <rdf:RDF>
      <cc:Work
         rdf:about="">
        <dc:format>image/svg+xml</dc:format>
        <dc:type
           rdf:resource="http://purl.org/dc/dcmitype/StillImage" />
        <dc:title></dc:title>
      </cc:Work>
    </rdf:RDF>
  </metadata>
  <g
     inkscape:label="Capa 1"
     inkscape:groupmode="layer"
     id="layer1"
     style="display:none"
     transform="translate(-46.028828,-82.569965)" />
  <g
     inkscape:groupmode="layer"
     id="layer2"
     inkscape:label="Capa 2"
     transform="translate(-46.028828,-82.569965)">
    <path
       d="m 63.155836,107.04768 v 17.84837 h -4.056948 v -12.04958 l -1.620575,12.04958 h -2.877346 l -1.708769,-11.77397 v 11.77397 h -4.056949 v -17.84837 h 6.008253 q 0.264583,1.60955 0.56224,3.79237 l 0.63941,4.54201 1.058335,-8.33438 z"
       style="font-style:normal;font-variant:normal;font-weight:normal;font-stretch:normal;font-size:22.5778px;line-height:1.25;font-family:Impact;-inkscape-font-specification:Impact;opacity:0.991;fill:#ffffff;fill-opacity:1;stroke:none;stroke-width:0.264583;filter:url(#filter1025)"
       id="path1717"
       transform="matrix(1.1959592,0,0,1.3443913,-12.376009,-43.013305)"
       inkscape:export-xdpi="95"
       inkscape:export-ydpi="95" />
    <path
       d="m 68.866432,115.93328 h -4.178216 v -0.98116 q 0,-1.69775 0.385851,-2.61277 0.396876,-0.92604 1.576478,-1.6316 1.179602,-0.70555 3.06476,-0.70555 2.259985,0 3.406514,0.80477 1.146529,0.79375 1.378039,1.96233 0.231511,1.15755 0.231511,4.78455 v 7.3422 h -4.332557 v -1.30087 q -0.407899,0.78273 -1.058334,1.1796 -0.63941,0.38585 -1.53238,0.38585 -1.168578,0 -2.149742,-0.65043 -0.97014,-0.66146 -0.97014,-2.87735 v -1.20165 q 0,-1.64262 0.518143,-2.23794 0.518143,-0.59531 2.568666,-1.38906 2.193839,-0.8599 2.348179,-1.15755 0.154341,-0.29766 0.154341,-1.21268 0,-1.14653 -0.176389,-1.48828 -0.165365,-0.35278 -0.56224,-0.35278 -0.451997,0 -0.562241,0.29766 -0.110243,0.28663 -0.110243,1.51033 z m 1.411113,2.00643 q -1.069359,0.78272 -1.245748,1.31189 -0.165365,0.52917 -0.165365,1.52136 0,1.1355 0.143316,1.46623 0.154341,0.33073 0.595314,0.33073 0.418924,0 0.540191,-0.25356 0.132292,-0.26458 0.132292,-1.36702 z"
       style="font-style:normal;font-variant:normal;font-weight:normal;font-stretch:normal;font-size:22.5778px;line-height:1.25;font-family:Impact;-inkscape-font-specification:Impact;opacity:0.991;fill:#ffffff;fill-opacity:1;stroke:none;stroke-width:0.264583;filter:url(#filter1025)"
       id="path1719"
       inkscape:export-xdpi="95"
       inkscape:export-ydpi="95" />
    <path
       d="M 86.350998,117.84049 H 80.58528 v 3.16398 q 0,0.99218 0.143317,1.27882 0.143316,0.28663 0.551215,0.28663 0.507119,0 0.672484,-0.37483 0.176389,-0.38585 0.176389,-1.47726 v -1.92925 h 4.222313 v 1.08038 q 0,1.35599 -0.176389,2.0836 -0.165365,0.7276 -0.793751,1.55443 -0.628386,0.82682 -1.598526,1.24574 -0.959115,0.4079 -2.414325,0.4079 -1.411113,0 -2.491496,-0.4079 -1.080383,-0.4079 -1.68672,-1.11345 -0.595313,-0.71658 -0.826824,-1.56546 -0.231511,-0.85989 -0.231511,-2.49149 v -4.26641 q 0,-1.91823 0.518143,-3.02066 0.518143,-1.11346 1.697745,-1.69775 1.179602,-0.59531 2.711982,-0.59531 1.874134,0 3.086809,0.71658 1.223699,0.70555 1.708769,1.88516 0.496094,1.16857 0.496094,3.29627 z m -4.464848,-2.38126 v -1.06935 q 0,-1.13551 -0.121268,-1.46624 -0.121267,-0.33073 -0.496094,-0.33073 -0.463021,0 -0.573264,0.28663 -0.110244,0.27561 -0.110244,1.51034 v 1.06935 z"
       style="font-style:normal;font-variant:normal;font-weight:normal;font-stretch:normal;font-size:22.5778px;line-height:1.25;font-family:Impact;-inkscape-font-specification:Impact;opacity:0.991;fill:#ffffff;fill-opacity:1;stroke:none;stroke-width:0.264583;filter:url(#filter1025)"
       id="path1721"
       inkscape:export-xdpi="95"
       inkscape:export-ydpi="95" />
    <path
       d="m 96.901271,114.94109 h -3.946705 v -0.79375 q 0,-1.01424 -0.121268,-1.27882 -0.110243,-0.27561 -0.573264,-0.27561 -0.374827,0 -0.562241,0.25356 -0.187413,0.24254 -0.187413,0.73863 0,0.67248 0.08819,0.99219 0.09922,0.30868 0.56224,0.68351 0.474045,0.37482 1.929255,1.0914 1.94028,0.9481 2.546617,1.78594 0.606338,0.83785 0.606338,2.43638 0,1.78594 -0.463022,2.70095 -0.463021,0.904 -1.554428,1.40009 -1.080383,0.48507 -2.612763,0.48507 -1.697745,0 -2.91042,-0.52916 -1.20165,-0.52917 -1.653647,-1.43317 -0.451997,-0.90399 -0.451997,-2.73403 v -0.70555 h 3.946705 v 0.92604 q 0,1.1796 0.143316,1.53238 0.154341,0.35278 0.595313,0.35278 0.474046,0 0.661459,-0.23151 0.187414,-0.24254 0.187414,-1.00321 0,-1.04731 -0.242535,-1.3119 -0.25356,-0.26458 -2.590715,-1.56545 -1.962328,-1.10243 -2.392277,-1.9954 -0.429948,-0.904 -0.429948,-2.13872 0,-1.75287 0.463021,-2.57969 0.463022,-0.83785 1.565453,-1.28985 1.113456,-0.45199 2.579691,-0.45199 1.455209,0 2.469446,0.37482 1.025262,0.36381 1.565453,0.97014 0.551216,0.60634 0.661459,1.12448 0.121268,0.51815 0.121268,1.62058 z"
       style="font-style:normal;font-variant:normal;font-weight:normal;font-stretch:normal;font-size:22.5778px;line-height:1.25;font-family:Impact;-inkscape-font-specification:Impact;opacity:0.991;fill:#ffffff;fill-opacity:1;stroke:none;stroke-width:0.264583;filter:url(#filter1025)"
       id="path1723"
       transform="matrix(1.0853801,0,0,1.3730445,-7.9978277,-46.690484)"
       inkscape:export-xdpi="95"
       inkscape:export-ydpi="95" />
    <path
       d="m 103.13001,108.31548 v 2.30408 h 1.20165 v 2.31511 h -1.20165 v 7.82726 q 0,1.44419 0.14332,1.60955 0.15434,0.16537 1.24574,0.16537 v 2.3592 h -1.79696 q -1.52136,0 -2.17179,-0.12127 -0.650435,-0.13229 -1.146529,-0.58429 -0.496094,-0.46302 -0.617362,-1.04731 -0.121267,-0.59531 -0.121267,-2.77812 v -7.43039 h -0.959116 v -2.31511 h 0.959116 v -2.30408 z"
       style="font-style:normal;font-variant:normal;font-weight:normal;font-stretch:normal;font-size:22.5778px;line-height:1.25;font-family:Impact;-inkscape-font-specification:Impact;opacity:0.991;fill:#ffffff;fill-opacity:1;stroke:none;stroke-width:0.264583;filter:url(#filter1025)"
       id="path1725"
       inkscape:export-xdpi="95"
       inkscape:export-ydpi="95" />
    <path
       d="m 109.76665,110.26678 -0.17639,1.91823 q 0.97014,-2.06154 2.8112,-2.18281 v 5.14835 q -1.2237,0 -1.79696,0.33073 -0.57327,0.33073 -0.70556,0.92605 -0.13229,0.58428 -0.13229,2.71198 v 5.77674 h -4.45383 v -14.62927 z"
       style="font-style:normal;font-variant:normal;font-weight:normal;font-stretch:normal;font-size:22.5778px;line-height:1.25;font-family:Impact;-inkscape-font-specification:Impact;opacity:0.991;fill:#ffffff;fill-opacity:1;stroke:none;stroke-width:0.264583;filter:url(#filter1025)"
       id="path1727"
       inkscape:export-xdpi="95"
       inkscape:export-ydpi="95" />
    <path
       d="m 117.97976,107.04768 v 2.32613 h -4.58611 v -2.32613 z m 0,3.2191 v 14.62927 h -4.58611 v -14.62927 z"
       style="font-style:normal;font-variant:normal;font-weight:normal;font-stretch:normal;font-size:22.5778px;line-height:1.25;font-family:Impact;-inkscape-font-specification:Impact;opacity:0.991;fill:#ffffff;fill-opacity:1;stroke:none;stroke-width:0.264583;filter:url(#filter1025)"
       id="path1729"
       inkscape:export-xdpi="95"
       inkscape:export-ydpi="95" />
    <path
       d="m 127.72526,107.04768 2.65686,17.84837 h -4.75148 l -0.23151,-3.20808 h -1.66467 l -0.27561,3.20808 h -4.8066 l 2.3592,-17.84837 z m -2.45842,11.47631 q -0.35278,-3.03168 -0.70556,-7.48551 -0.70555,5.11529 -0.88194,7.48551 z"
       style="font-style:normal;font-variant:normal;font-weight:normal;font-stretch:normal;font-size:22.5778px;line-height:1.25;font-family:Impact;-inkscape-font-specification:Impact;opacity:0.991;fill:#ffffff;fill-opacity:1;stroke:none;stroke-width:0.264583;filter:url(#filter1025)"
       id="path1731"
       transform="matrix(1.227848,0,0,1.3518775,-27.034643,-43.948309)"
       inkscape:export-xdpi="95"
       inkscape:export-ydpi="95" />
    <path
       d="m 50.934828,133.77778 h 0.67696 q 0.34623,0 0.57878,-0.0258 0.23254,-0.0258 0.37207,-0.14469 0.14469,-0.12403 0.21704,-0.37724 0.0724,-0.25838 0.10335,-0.72347 h 0.3669 v 3.05924 h -0.3669 q -0.0258,-0.47026 -0.0879,-0.73897 -0.062,-0.27389 -0.20154,-0.41341 -0.13952,-0.13953 -0.37723,-0.1757 -0.23255,-0.0362 -0.60462,-0.0362 h -0.67696 v 3.26594 h 1.36943 q 0.40307,0 0.70796,-0.031 0.30489,-0.031 0.53227,-0.11369 0.22737,-0.0827 0.38757,-0.23254 0.16536,-0.14987 0.28422,-0.38758 0.11885,-0.23771 0.20154,-0.57877 0.0827,-0.34106 0.15502,-0.80615 h 0.36174 l -0.10335,2.56314 h -5.93761 v -0.41341 h 1.03353 v -6.68174 h -1.03353 v -0.41341 h 5.80841 l 0.10336,2.07222 h -0.36174 q -0.0775,-0.51676 -0.1912,-0.83715 -0.11369,-0.32556 -0.32039,-0.50643 -0.20154,-0.18604 -0.53227,-0.24805 -0.32556,-0.0672 -0.82682,-0.0672 h -1.63814 z"
       style="font-style:normal;font-variant:normal;font-weight:normal;font-stretch:normal;font-size:10.5833px;line-height:1.25;font-family:'Javanese Text';-inkscape-font-specification:'Javanese Text';display:inline;opacity:0.991;fill:#ffffff;fill-opacity:1;stroke:none;stroke-width:0.264583;filter:url(#filter993)"
       id="path18"
       inkscape:export-xdpi="95"
       inkscape:export-ydpi="95" />
    <path
       d="m 60.898899,137.33383 q 0.40307,0 0.70796,-0.031 0.30489,-0.031 0.53227,-0.11369 0.23254,-0.0879 0.39791,-0.23771 0.16536,-0.15503 0.28422,-0.39791 0.11885,-0.24287 0.20153,-0.58911 0.0879,-0.35139 0.15503,-0.83198 h 0.36174 l -0.11369,2.61482 h -5.782581 v -0.41341 h 1.03353 v -6.68175 h -1.03353 v -0.41341 h 3.074741 v 0.41341 h -1.03352 v 6.68175 z"
       style="font-style:normal;font-variant:normal;font-weight:normal;font-stretch:normal;font-size:10.5833px;line-height:1.25;font-family:'Javanese Text';-inkscape-font-specification:'Javanese Text';display:inline;opacity:0.991;fill:#ffffff;fill-opacity:1;stroke:none;stroke-width:0.264583;filter:url(#filter997)"
       id="path20"
       inkscape:export-xdpi="95"
       inkscape:export-ydpi="95" />
    <path
       d="m 68.289479,133.64414 h 0.67696 q 0.34624,0 0.57878,-0.0258 0.23254,-0.0258 0.37207,-0.14469 0.14469,-0.12402 0.21704,-0.37724 0.0724,-0.25838 0.10335,-0.72346 h 0.3669 v 3.05923 h -0.3669 q -0.0258,-0.47025 -0.0879,-0.73897 -0.062,-0.27388 -0.20154,-0.41341 -0.13952,-0.13952 -0.37723,-0.1757 -0.23255,-0.0362 -0.60462,-0.0362 h -0.67696 v 3.26594 h 1.36943 q 0.40307,0 0.70796,-0.031 0.30489,-0.031 0.53227,-0.11369 0.22737,-0.0827 0.38757,-0.23254 0.16536,-0.14986 0.28422,-0.38757 0.11885,-0.23771 0.20154,-0.57878 0.0827,-0.34106 0.15502,-0.80615 h 0.36174 l -0.10335,2.56315 h -5.93761 v -0.41341 h 1.03353 v -6.68174 h -1.03353 v -0.41341 h 5.80841 l 0.10336,2.07221 h -0.36174 q -0.0775,-0.51676 -0.1912,-0.83715 -0.11369,-0.32556 -0.32039,-0.50643 -0.20154,-0.18603 -0.53227,-0.24804 -0.32556,-0.0672 -0.82682,-0.0672 h -1.63814 z"
       style="font-style:normal;font-variant:normal;font-weight:normal;font-stretch:normal;font-size:10.5833px;line-height:1.25;font-family:'Javanese Text';-inkscape-font-specification:'Javanese Text';display:inline;opacity:0.991;fill:#ffffff;fill-opacity:1;stroke:none;stroke-width:0.264583;filter:url(#filter1001)"
       id="path22"
       inkscape:export-xdpi="95"
       inkscape:export-ydpi="95" />
    <path
       d="m 82.165449,137.33383 v -6.54738 h -0.0258 l -2.68717,7.0383 h -0.40824 l -2.5218,-7.02797 h -0.0258 v 6.53705 h 0.93017 v 0.41341 h -2.42878 v -0.41341 h 1.03352 v -6.68174 h -1.03352 v -0.41341 h 2.39261 l 2.1549,5.97894 h 0.0207 l 2.29443,-5.97894 h 2.3461 v 0.41341 h -1.03353 v 6.68174 h 1.03353 v 0.41341 h -2.97139 v -0.41341 z"
       style="font-style:normal;font-variant:normal;font-weight:normal;font-stretch:normal;font-size:10.5833px;line-height:1.25;font-family:'Javanese Text';-inkscape-font-specification:'Javanese Text';display:inline;opacity:0.991;fill:#ffffff;fill-opacity:1;stroke:none;stroke-width:0.264583;filter:url(#filter1005)"
       id="path24"
       inkscape:export-xdpi="95"
       inkscape:export-ydpi="95" />
    <path
       d="m 88.956589,133.64414 h 0.67696 q 0.34623,0 0.57877,-0.0258 0.23254,-0.0258 0.37207,-0.14469 0.14469,-0.12402 0.21704,-0.37724 0.0724,-0.25838 0.10335,-0.72346 h 0.3669 v 3.05923 h -0.3669 q -0.0258,-0.47025 -0.0879,-0.73897 -0.062,-0.27388 -0.20154,-0.41341 -0.13952,-0.13952 -0.37723,-0.1757 -0.23255,-0.0362 -0.60461,-0.0362 h -0.67696 v 3.26594 h 1.36942 q 0.40307,0 0.70796,-0.031 0.30489,-0.031 0.53227,-0.11369 0.22737,-0.0827 0.38757,-0.23254 0.16536,-0.14986 0.28422,-0.38757 0.11885,-0.23771 0.20154,-0.57878 0.0827,-0.34106 0.15503,-0.80615 h 0.36173 l -0.10335,2.56315 h -5.93761 v -0.41341 h 1.03353 v -6.68174 h -1.03353 v -0.41341 h 5.80842 l 0.10335,2.07222 h -0.36174 q -0.0775,-0.51677 -0.1912,-0.83716 -0.11369,-0.32556 -0.32039,-0.50643 -0.20154,-0.18603 -0.53227,-0.24804 -0.32556,-0.0672 -0.82682,-0.0672 h -1.63813 z"
       style="font-style:normal;font-variant:normal;font-weight:normal;font-stretch:normal;font-size:10.5833px;line-height:1.25;font-family:'Javanese Text';-inkscape-font-specification:'Javanese Text';display:inline;opacity:0.991;fill:#ffffff;fill-opacity:1;stroke:none;stroke-width:0.264583;filter:url(#filter1009)"
       id="path26"
       inkscape:export-xdpi="95"
       inkscape:export-ydpi="95" />
    <path
       d="m 102.07291,137.82475 h -0.41341 l -4.470001,-6.92978 -0.0258,0.005 v 6.43369 h 0.93017 v 0.41341 h -2.42878 v -0.41341 h 1.03352 v -6.68174 h -1.03352 v -0.41341 h 2.30993 l 3.607011,5.59137 0.0258,-0.005 v -5.17279 h -1.03353 v -0.41341 h 2.53214 v 0.41341 h -1.03352 z"
       style="font-style:normal;font-variant:normal;font-weight:normal;font-stretch:normal;font-size:10.5833px;line-height:1.25;font-family:'Javanese Text';-inkscape-font-specification:'Javanese Text';display:inline;opacity:0.991;fill:#ffffff;fill-opacity:1;stroke:none;stroke-width:0.264583;filter:url(#filter1013)"
       id="path28"
       inkscape:export-xdpi="95"
       inkscape:export-ydpi="95" />
    <path
       d="m 105.96498,130.23868 h 6.05646 l 0.12403,2.22725 h -0.36174 q -0.0723,-0.57878 -0.18603,-0.93535 -0.11369,-0.35656 -0.32556,-0.54776 -0.20671,-0.19637 -0.53744,-0.26355 -0.33072,-0.0672 -0.83198,-0.0672 h -0.41858 v 6.68174 h 1.13688 v 0.41341 h -3.28145 v -0.41341 h 1.13688 v -6.68174 h -0.39274 q -0.33589,0 -0.59428,0.0258 -0.25838,0.0258 -0.45475,0.0982 -0.1912,0.0724 -0.33073,0.20153 -0.13952,0.1292 -0.23771,0.33073 -0.0982,0.20154 -0.17053,0.48576 -0.0672,0.28422 -0.11885,0.67179 h -0.36174 z"
       style="font-style:normal;font-variant:normal;font-weight:normal;font-stretch:normal;font-size:10.5833px;line-height:1.25;font-family:'Javanese Text';-inkscape-font-specification:'Javanese Text';display:inline;opacity:0.991;fill:#ffffff;fill-opacity:1;stroke:none;stroke-width:0.264583;filter:url(#filter1017)"
       id="path30"
       inkscape:export-xdpi="95"
       inkscape:export-ydpi="95" />
    <path
       d="m 117.37083,137.33383 v 0.41341 h -2.51664 v -0.41341 h 0.98185 l 2.68717,-7.17267 h 0.40824 l 2.5218,7.17267 h 1.02319 v 0.41341 h -3.17809 v -0.41341 h 1.07487 l -0.77515,-2.20658 h -2.43912 l -0.82165,2.20658 z m 1.03869,-5.5397 -1.09037,2.91455 h 2.13423 l -1.02319,-2.91455 z"
       style="font-style:normal;font-variant:normal;font-weight:normal;font-stretch:normal;font-size:10.5833px;line-height:1.25;font-family:'Javanese Text';-inkscape-font-specification:'Javanese Text';display:inline;opacity:0.991;fill:#ffffff;fill-opacity:1;stroke:none;stroke-width:0.264583;filter:url(#filter1021)"
       id="path32"
       inkscape:export-xdpi="95"
       inkscape:export-ydpi="95" />
    <path
       d="m 128.44076,137.06656 q 0.40307,0 0.70796,-0.031 0.30489,-0.031 0.53227,-0.11369 0.23254,-0.0879 0.39791,-0.23771 0.16536,-0.15503 0.28422,-0.39791 0.11885,-0.24287 0.20153,-0.58911 0.0879,-0.35139 0.15503,-0.83198 h 0.36174 l -0.11369,2.61482 h -5.78258 v -0.41341 h 1.03353 v -6.68175 h -1.03353 v -0.41341 h 3.07474 v 0.41341 h -1.03352 v 6.68175 z"
       style="font-style:normal;font-variant:normal;font-weight:normal;font-stretch:normal;font-size:10.5833px;line-height:1.25;font-family:'Javanese Text';-inkscape-font-specification:'Javanese Text';display:inline;opacity:0.991;fill:#ffffff;fill-opacity:1;stroke:none;stroke-width:0.264583;filter:url(#filter1029)"
       id="path34"
       inkscape:export-xdpi="95"
       inkscape:export-ydpi="95" />
    <circle
       id="path1742"
       style="opacity:0.991;fill:#ffffff;fill-opacity:1;stroke:#000000;stroke-width:0.264583"
       cx="62.2738"
       cy="91.673447"
       r="0.017661087"
       inkscape:export-xdpi="95"
       inkscape:export-ydpi="95" />
    <circle
       id="path1744"
       style="opacity:0.991;fill:#ffffff;fill-opacity:1;stroke:#000000;stroke-width:0.264583"
       cx="66.951019"
       cy="82.719917"
       r="0.017661087"
       inkscape:export-xdpi="95"
       inkscape:export-ydpi="95" />
    <path
       style="opacity:0.991;fill:#ffffff;fill-opacity:1;stroke:none;stroke-width:0.264583px;stroke-linecap:butt;stroke-linejoin:miter;stroke-opacity:1"
       d="m 66.951016,107.94348 14.76664,-9.187399 0.534537,6.247429 c 0,0 -2.160427,-0.8909 -4.710624,-0.40091 -2.550196,0.49 -10.590553,3.34088 -10.590553,3.34088 z"
       id="path1756"
       sodipodi:nodetypes="cccsc"
       inkscape:export-xdpi="95"
       inkscape:export-ydpi="95" />
    <path
       style="opacity:0.991;fill:#ffffff;fill-opacity:1;stroke:none;stroke-width:0.264583px;stroke-linecap:butt;stroke-linejoin:miter;stroke-opacity:1"
       d="m 113.43717,107.55126 -14.766635,-9.187388 -0.53454,6.247418 c 0,0 2.160425,-0.8909 4.710625,-0.40091 2.55019,0.49 10.59055,3.34088 10.59055,3.34088 z"
       id="path1756-9"
       sodipodi:nodetypes="cccsc"
       inkscape:export-xdpi="95"
       inkscape:export-ydpi="95" />
    <path
       style="opacity:0.991;fill:#ffffff;fill-opacity:1;stroke:none;stroke-width:0.264583px;stroke-linecap:butt;stroke-linejoin:miter;stroke-opacity:1"
       d="m 90.203464,88.725094 -2.80633,4.418327 -4.276313,2.93997 4.276313,2.67269 2.80633,4.936119 2.873148,-4.936119 3.608139,-2.67269 -3.608139,-2.93997 z"
       id="path1773"
       sodipodi:nodetypes="ccccccccc"
       inkscape:export-xdpi="95"
       inkscape:export-ydpi="95" />
  </g>
</svg>
