<?xml version="1.0" encoding="UTF-8" standalone="no"?>
<svg
   xmlns:dc="http://purl.org/dc/elements/1.1/"
   xmlns:cc="http://creativecommons.org/ns#"
   xmlns:rdf="http://www.w3.org/1999/02/22-rdf-syntax-ns#"
   xmlns:svg="http://www.w3.org/2000/svg"
   xmlns="http://www.w3.org/2000/svg"
   xmlns:sodipodi="http://sodipodi.sourceforge.net/DTD/sodipodi-0.dtd"
   xmlns:inkscape="http://www.inkscape.org/namespaces/inkscape"
   width="217.75021mm"
   height="28.076149mm"
   viewBox="0 0 217.75021 28.076149"
   version="1.1"
   id="svg5450"
   inkscape:version="1.0.1 (3bc2e813f5, 2020-09-07)"
   sodipodi:docname="me_hydro_color_full.svg">
  <defs
     id="defs5444" />
  <sodipodi:namedview
     id="base"
     pagecolor="#ffffff"
     bordercolor="#666666"
     borderopacity="1.0"
     inkscape:pageopacity="0.0"
     inkscape:pageshadow="2"
     inkscape:zoom="0.47457256"
     inkscape:cx="402.88699"
     inkscape:cy="-130.7036"
     inkscape:document-units="mm"
     inkscape:current-layer="layer1"
     inkscape:document-rotation="0"
     showgrid="false"
     fit-margin-top="0"
     fit-margin-left="0"
     fit-margin-right="0"
     fit-margin-bottom="0"
     inkscape:window-width="1366"
     inkscape:window-height="705"
     inkscape:window-x="-8"
     inkscape:window-y="32"
     inkscape:window-maximized="1"
     inkscape:lockguides="true" />
  <metadata
     id="metadata5447">
    <rdf:RDF>
      <cc:Work
         rdf:about="">
        <dc:format>image/svg+xml</dc:format>
        <dc:type
           rdf:resource="http://purl.org/dc/dcmitype/StillImage" />
        <dc:title></dc:title>
      </cc:Work>
    </rdf:RDF>
  </metadata>
  <g
     inkscape:label="Capa 1"
     inkscape:groupmode="layer"
     id="layer1"
     transform="translate(325.82464,-110.45494)">
    <g
       id="g3685"
       transform="matrix(0.38084655,0,0,0.38084655,-98.970164,172.76102)">
      <g
         id="g488-53-6-1"
         transform="matrix(0.35277777,0,0,-0.35277777,-685.06279,165.36414)"
         style="fill:#ff9164;fill-opacity:1">
        <g
           id="g42-76-5-2"
           transform="translate(311.31172,808.00624)"
           style="fill:#ff9164;fill-opacity:1">
          <path
             d="m 0,0 c 0,0 24.431,6.209 32.742,-4.129 7.935,-9.871 3.903,-18.839 1.839,-24.774 0,0 33.419,10.226 11.612,35.322 C 46.193,6.419 23.484,29.678 0,0"
             style="fill:#ff9164;fill-opacity:1;fill-rule:nonzero;stroke:none"
             id="path44-0-5-5" />
        </g>
        <g
           id="g46-7-3-4"
           transform="translate(303.98902,770.87734)"
           style="fill:#ff9164;fill-opacity:1">
          <path
             d="m 0,0 c 0,0 -9.898,3.979 -11.322,18.193 -0.58,5.779 -1.128,13.888 3.09,23.115 0.004,0.009 0.004,0.011 0.01,0.02 0.24,0.412 13.315,22.585 37.545,21.865 0.447,-0.013 0.577,0.597 0.158,0.75 -9.313,3.401 -38.996,15.977 -36.545,37.38 0,0 -0.968,-11.226 -32.129,-46.839 -31.162,-35.613 9.484,-56.323 29.612,-66 18.804,-9.04 39.296,-27.538 41.914,-29.936 0.156,-0.143 0.392,-0.134 0.536,0.022 1.744,1.88 12.281,12.856 27.615,20.753 21.548,11.096 42.194,27.741 46.064,32.516 9.011,11.112 9.355,33.29 -10.322,47.484 0,0 -24.297,18.506 -28.996,42.461 -0.066,0.341 -0.501,0.436 -0.699,0.15 -2.832,-4.1 -15.391,-24.323 0.533,-39.902 0,0 2.658,-2.834 1.871,-6.638 -0.054,-0.263 -0.365,-0.383 -0.591,-0.239 -3.755,2.388 -28.764,19.951 -15.973,56.737 0.121,0.349 -0.253,0.664 -0.565,0.464 -5.07,-3.246 -28.599,-19.738 -16.897,-39.498 0.229,-0.387 -0.25,-0.801 -0.587,-0.504 -3.647,3.225 -10.9,10.874 -8.774,19.194 2.436,9.534 10.355,14.226 18.678,23.71 3.904,4.449 2.887,13.462 1.161,17.129 -5.387,11.449 -12.42,20.385 -14.826,23.288 -0.24,0.288 -0.711,0.1 -0.686,-0.275 0.286,-4.258 -0.681,-19.195 -22.591,-45.144 -0.017,-0.02 -0.031,-0.04 -0.043,-0.065 C 6.69,109.108 -6.304,82.641 29.903,68.613 66.871,54.29 70.936,40.742 70.936,40.742 c 0,0 19.934,-46.837 -40.255,-46.452 -0.002,0 -0.001,0 -0.004,0.001 -0.118,0.005 -24.755,1.212 -16.838,22.645 0,0 1.359,7.984 8.056,10.902 0.368,0.16 0.308,0.694 -0.091,0.743 C 15.703,29.329 -6.299,30.38 2.219,4.957 2.223,4.943 2.227,4.934 2.233,4.92 2.535,4.284 12.496,-16.038 49.839,-8.226 c 37.935,7.935 42,34.065 42,34.065 0,0 3.37,10.484 -4.806,31.822 -0.135,0.352 0.244,0.684 0.563,0.482 C 93.048,54.689 118.864,36.868 99.089,13.266 98.644,12.734 98.135,12.253 97.592,11.823 93.835,8.849 78.015,-3.414 65.226,-9.484 47.575,-17.861 37.689,-24.722 33.032,-28.186 c -0.138,-0.102 -0.32,-0.099 -0.458,0.003 -2.674,1.967 -27.951,20.386 -46.993,27.892 -19.758,7.79 -43.432,36.651 -6.958,59.677 0.374,0.236 0.801,-0.223 0.526,-0.569 C -26.833,51.304 -45.382,22.524 0,0"
             style="fill:#ff9164;fill-opacity:1;fill-rule:nonzero;stroke:none"
             id="path48-77-0-6" />
        </g>
      </g>
      <g
         id="g556-9-3-9"
         transform="matrix(0.34681943,0,0,-0.33555353,-889.07439,-9.6850206)">
        <g
           id="g74-3-0-1"
           transform="translate(1092.1902,344.00434)">
          <path
             d="m 0,0 c 0,-6.627 -5.286,-12 -11.807,-12 -6.52,0 -11.806,5.373 -11.806,12 0,6.627 5.286,12 11.806,12 C -5.286,12 0,6.627 0,0"
             style="fill:#21e2ea;fill-opacity:1;fill-rule:nonzero;stroke:none"
             id="path76-6-5-3" />
        </g>
        <g
           id="g545-39-8-3">
          <g
             id="g78-2-1-1"
             transform="translate(1105.6414,302.97214)">
            <path
               d="m 0,0 c 0,-4.383 -3.856,-7.936 -8.613,-7.936 -4.757,0 -8.613,3.553 -8.613,7.936 0,4.382 3.856,7.936 8.613,7.936 C -3.856,7.936 0,4.382 0,0"
               style="fill:#21e2ea;fill-opacity:1;fill-rule:nonzero;stroke:none"
               id="path80-1-0-7" />
          </g>
          <g
             id="g82-1-1-8"
             transform="translate(1188.2547,284.90764)">
            <path
               d="m 0,0 c 0,0 -16.258,-21.678 -39.484,-9.291 -19.985,10.659 -8.826,42.145 8.817,37.735 4.688,-1.172 8.419,-4.825 9.9,-9.425 1.778,-5.525 6.45,-14.161 15.283,-10.148 12.111,5.502 7.032,17.967 7.032,17.967 0,0 -8.694,25.855 -37.871,20.452 -3.769,-0.698 -9.032,-2.387 -13.355,-6 -14.739,-10.574 -20.949,-41.201 6.54,-54.193 0.431,-0.203 0.873,-0.382 1.325,-0.535 C -37.233,-15 -13.265,-21.875 0,0"
               style="fill:#21e2ea;fill-opacity:1;fill-rule:nonzero;stroke:none"
               id="path84-3-4-0" />
          </g>
          <g
             id="g86-9-2-8"
             transform="translate(1103.4803,276.84274)">
            <path
               d="m 0,0 c 0,0 22.645,-27.871 64.839,-23.032 42.193,4.839 66,36.968 66,36.968 0,0 42.193,51.677 -1.548,112.838 -28.192,39.419 -70.052,37.353 -96.251,30.902 -16.446,-4.05 -31.735,-11.997 -44.301,-23.354 -10.567,-9.551 -19.862,-22.009 -12.158,-32.128 9.871,-12.968 23.29,4.968 23.29,4.968 0,0 42.65,49.757 101.259,10.786 0.687,-0.456 1.375,-0.916 2.065,-1.368 4.686,-3.07 34.394,-24.608 27.257,-72.902 0,0 -5.678,-44.129 -45.678,-56.516 0,0 52.129,29.677 31.742,82.838 -20.387,53.162 -81.548,37.419 -81.548,37.419 0,0 -13.42,-4.902 -9.807,-16 3.613,-11.096 12.646,-8.516 12.646,-8.516 0,0 49.548,11.614 65.806,-31.225 16.258,-42.839 -32,-65.549 -32,-65.549 0,0 -34.322,-8.903 -71.613,13.871"
               style="fill:#21e2ea;fill-opacity:1;fill-rule:nonzero;stroke:none"
               id="path88-5-0-1" />
          </g>
        </g>
      </g>
      <g
         id="g629-99-3-9"
         transform="matrix(0.35277777,0,0,-0.35277777,-748.64161,108.12051)">
        <g
           id="g130-2-2-5"
           transform="translate(955.46522,764.83874)">
          <path
             d="m 0,0 c 0,0 -30.628,-46.942 21.262,-92.387 0,0 -49.359,8.49 -52.649,43.697 C -34.678,-13.483 0,0 0,0"
             style="fill:#74dec1;fill-opacity:1;fill-rule:nonzero;stroke:none"
             id="path132-37-9-3" />
        </g>
        <g
           id="g134-8-0-9"
           transform="translate(1021.3128,765.61324)">
          <path
             d="m 0,0 c 0,0 30.768,-47.467 -21.359,-93.419 0,0 49.584,8.584 52.889,44.185 C 34.836,-13.634 0,0 0,0"
             style="fill:#74dec1;fill-opacity:1;fill-rule:nonzero;stroke:none"
             id="path136-7-6-7" />
        </g>
        <g
           id="g138-6-7-2"
           transform="translate(890.27572,696.96814)">
          <path
             d="m 0,0 c 0,0 17.032,-32.516 38.452,-35.871 21.419,-3.355 39.387,4.225 47.355,-19.129 0,0 6.874,-25.191 -16.161,-20.29 -2.546,0.541 -4.623,2.565 -5,5.14 -0.036,0.237 -0.056,0.473 -0.059,0.705 -0.011,1.023 0.835,1.877 1.858,1.901 4.932,0.118 22.002,1.512 14.071,15.415 -6.219,10.903 -18.838,4.857 -23.638,2.002 -1.896,-1.128 -3.881,-2.102 -5.962,-2.836 -9.541,-3.369 -33.586,-9.354 -46.532,9.901 -2.145,3.189 -3.644,6.759 -4.619,10.477 C -2.166,-25.216 -5.113,-10.037 0,0"
             style="fill:#74dec1;fill-opacity:1;fill-rule:nonzero;stroke:none"
             id="path140-8-3-0" />
        </g>
        <g
           id="g142-3-1-7"
           transform="translate(1087.2772,697.15714)">
          <path
             d="m 0,0 c 0,0 -17.032,-32.516 -38.452,-35.871 -21.419,-3.355 -39.386,4.226 -47.354,-19.129 0,0 -6.875,-25.19 16.161,-20.29 2.545,0.541 4.623,2.565 5,5.14 0.035,0.237 0.055,0.474 0.058,0.706 0.011,1.022 -0.835,1.876 -1.857,1.9 -4.932,0.118 -22.002,1.512 -14.072,15.415 6.219,10.903 18.839,4.857 23.638,2.002 1.897,-1.128 3.882,-2.102 5.963,-2.836 9.54,-3.369 33.585,-9.354 46.532,9.901 2.144,3.189 3.644,6.759 4.618,10.477 C 2.166,-25.216 5.113,-10.037 0,0"
             style="fill:#74dec1;fill-opacity:1;fill-rule:nonzero;stroke:none"
             id="path144-3-8-7" />
        </g>
        <g
           id="g146-1-9-6"
           transform="translate(1003.5663,605.48234)">
          <path
             d="m 0,0 -10.35,0.29 -4.84,5.42 -5.52,-5.13 -8.71,0.39 c 10.94,4.45 14.19,13.35 14.19,13.35 C -12,6.58 0,0 0,0 m -15.39,-22.06 -8.22,14.42 8.32,6.58 9.39,-6.39 z m 77.91,151.35 c 0,0 0.96,-42.39 -42.97,-60.19 0,0 -31.94,-11.81 -34.45,-29.61 0,0 -7.29,20.97 -31.24,26.98 -3.82,0.96 -7.55,2.29 -11,4.21 -11.4,6.34 -31.57,22.57 -33.96,58.74 0,0 -26.98,-42.14 8.54,-62.05 5.55,-3.11 11.77,-4.82 18.11,-5.37 12.37,-1.05 39.6,-5.61 44.45,-25.22 6.32,-25.55 -12.45,-27.55 -12.45,-27.55 0,0 -6.26,-1.55 -10.13,1.22 l -8.52,0.26 c 0,0 25.55,-20 35.36,-50.32 0,0 20.77,39.61 36.26,49.87 l -8.2,0.19 c 0,0 -3.76,-3.15 -11.16,-1.16 -7.68,2.07 -16.77,10.78 -11.48,27.87 5.29,17.1 27.55,21.55 34.45,22.07 6.9,0.51 25.71,4.74 33.26,11.03 7.1,5.92 23.9,21.48 5.13,59.03"
             style="fill:#74dec1;fill-opacity:1;fill-rule:nonzero;stroke:none"
             id="path148-23-9-7" />
        </g>
      </g>
      <g
         id="g198-2-9-8"
         transform="matrix(0.35090447,0,0,-0.35090447,-312.14768,-143.84692)">
        <path
           d="m 0,0 c 0,0 -18.694,1.911 -19.877,-15.465 -0.595,-8.734 3.405,-17.257 10.444,-22.463 5.688,-4.206 14.318,-7.511 26.659,-5.426 21.774,3.677 28.217,25.175 29.003,29.508 0.101,0.558 0.505,2.924 0.513,3.492 0.097,7.064 5.668,38.507 -52.355,61.257 0,0 42.677,2.323 75.888,-31.361 1.114,-1.129 2.097,-2.374 3.114,-3.591 C 78.871,9.387 91.23,-5.922 96,-34.064 c 0,0 -11.032,21.871 -27.483,36 0,0 17.806,-66.774 -31.356,-78.774 0,0 5.813,7.672 1.942,17.341 -2.526,6.308 -8.337,10.667 -15.021,11.893 -6.571,1.206 -15.872,0.622 -24.559,-8.044 -10.17,-10.145 -14.024,-25.245 -9.49,-38.876 3.774,-11.347 13.645,-23.443 38.031,-26.443 0,0 30.775,-1.162 53.807,21.677 0,0 -18.193,-39.677 -66.58,-48.194 0,0 -34.065,-7.161 -57.872,5.42 0,0 37.549,-0.774 44.904,5.613 0,0 -62.323,14.903 -51.677,66.193 0,0 7.354,-18.387 24.967,-8.903 17.613,9.484 11.806,32.71 11.806,32.71 0,0 -3.898,19.373 -26.276,23.788 -19.494,3.847 -39.068,-6.82 -46.845,-25.104 -4.75,-11.166 -7.908,-27.26 -6.427,-50.362 0,0 -16.512,20.58 -12.94,57.318 2.212,22.75 11.518,44.346 26.855,61.295 3.432,3.792 7.315,7.526 11.633,10.871 0,0 -19.935,-29.613 -16.064,-42.968 0,0 42.774,47.42 82.645,11.613"
           style="fill:#a357d5;fill-opacity:1;fill-rule:nonzero;stroke:none"
           id="path200-51-4-2" />
      </g>
      <g
         id="g676-3-9-1"
         transform="matrix(0.35277777,0,0,-0.35277777,-652.8274,123.20557)">
        <g
           id="g218-6-1-9"
           transform="translate(1191.7296,724.78926)">
          <path
             d="m 0,0 c 0,0 -12.388,5.162 -18.323,-9.29 -5.935,-14.452 12.387,-29.677 22.452,-39.484 0,0 -29.936,23.484 -45.419,13.677 0,0 4.129,8.775 10.58,8.259 0,0 -0.516,2.838 -3.097,6.451 -1.989,2.785 -6.585,12.777 -0.077,22.411 4.514,6.681 12.549,10.171 20.548,9.156 C -7.887,10.489 -2.104,7.796 0,0"
             style="fill:#1ec389;fill-opacity:1;fill-rule:nonzero;stroke:none"
             id="path220-5-5-2" />
        </g>
        <g
           id="g222-69-3-4"
           transform="translate(1221.2433,724.75996)">
          <path
             d="m 0,0 c 0,0 12.388,5.161 18.323,-9.291 5.936,-14.451 -12.387,-29.677 -22.452,-39.483 0,0 29.936,23.483 45.42,13.677 0,0 -4.129,8.774 -10.581,8.258 0,0 0.517,2.839 3.097,6.452 1.989,2.784 6.586,12.777 0.077,22.41 C 29.37,8.705 21.335,12.195 13.336,11.18 7.887,10.489 2.104,7.796 0,0"
             style="fill:#1ec389;fill-opacity:1;fill-rule:nonzero;stroke:none"
             id="path224-1-4-2" />
        </g>
        <g
           id="g226-9-9-2"
           transform="translate(1205.923,615.11196)">
          <path
             d="M 0,0 C 0,0 -6.064,20.129 -19.871,27.613 -33.678,35.097 -68,47.161 -75.742,80.774 l -0.339,1.387 -1.887,-0.242 c 0,0 -3.483,-8.128 -8.564,-6.967 -5.081,1.161 -9.436,3.629 -12,7.355 -2.565,3.725 12.049,7.354 12.629,7.354 0.581,0 5.564,-1.113 7.452,-4.645 h 1.838 c 0,0 -3.29,34.016 10.549,42.145 l -1.258,1.646 c 0,0 -12.356,-6.097 -18.871,4.548 -6.517,10.645 -4.517,16.258 -4.517,16.258 0,0 14.452,3.161 21.42,-3.871 6.968,-7.032 4.451,-14.581 4.451,-14.581 l 1.613,-1.354 c 0,0 14.065,14.451 31.743,14.645 13.213,0.144 22.822,-8.002 26.833,-12.125 1.855,-1.909 2.6,-4.721 1.631,-7.2 -0.607,-1.554 -1.859,-2.843 -4.365,-2.694 -1.972,0.116 -3.774,1.176 -4.963,2.754 -2.541,3.371 -10.365,10.72 -29.202,6.297 -24.451,-5.742 -23.483,-26.452 -23.483,-26.452 0,0 -3.226,-33.419 15.354,-44.258 0,0 10.693,-7.284 29.722,-16.024 4.397,-2.019 8.474,-4.729 11.893,-8.152 2.707,-2.711 5.385,-6.195 7.031,-10.405 L 0,23.613 c 0,0 3.354,13.032 18.193,19.871 14.839,6.839 30.71,9.032 44.388,32.387 11.787,20.127 0.574,38.529 -2.75,43.231 -0.522,0.739 -1.018,1.489 -1.512,2.247 -2.394,3.67 -11.708,15.129 -32.76,11.308 -3.058,-0.555 -6.024,-1.616 -8.61,-3.34 -1.384,-0.923 -2.789,-2.102 -3.897,-3.565 -3.27,-4.314 -10.224,-2.14 -10.01,3.269 0.01,0.253 0.027,0.515 0.055,0.786 0.903,9.032 23.096,14.838 23.096,14.838 0,0 21.807,5.807 38.453,-14.064 l 1.871,0.935 c 0,0 -5.13,8.613 2.515,13.742 7.646,5.129 21.775,6.387 23.226,5.129 1.452,-1.258 -1.548,-14.71 -5.419,-16.839 0,0 -5.032,-9.193 -18.581,-4.741 l -1.741,-0.678 c 0,0 8.355,-6.418 10.461,-22.539 0.139,-1.066 0.192,-2.141 0.205,-3.217 0.045,-3.67 0.13,-12.653 -0.022,-17.502 L 79,84.968 c 0,0 3.387,6.677 8.129,4.839 0,0 8.322,-1.743 11.42,-7.743 0,0 0.483,-3.871 -11.903,-7.451 0,0 -8.227,0.097 -9,7.258 l -2.324,-0.097 c 0,0 1.628,-16.202 -15.627,-31.305 C 55.257,46.583 50.188,43.482 44.809,41.061 36.734,37.427 19.678,29.153 12.419,21.097 2.742,10.355 0,0 0,0"
             style="fill:#1ec389;fill-opacity:1;fill-rule:nonzero;stroke:none"
             id="path228-8-5-7" />
        </g>
        <g
           id="g230-22-0-2"
           transform="translate(1206.3419,750.59586)">
          <path
             d="M 0,0 C 0,0 16.259,12.484 15.581,20.226 14.903,27.968 5.323,44.613 0.581,50.613 -3.146,55.329 -11.894,34.521 -15.468,25.396 -16.924,21.68 -16.501,17.495 -14.309,14.161 -12.001,10.652 -7.764,5.896 0,0"
             style="fill:#1ec389;fill-opacity:1;fill-rule:nonzero;stroke:none"
             id="path232-6-5-0" />
        </g>
      </g>
      <g
         id="g756-32-1-8"
         transform="matrix(0.35277777,0,0,-0.35277777,-662.31309,136.00026)">
        <g
           id="g399-3-1-3"
           transform="translate(1746.8808,729.18198)">
          <path
             d="m 0,0 c 0.88,-0.39 16.02,-7.1 33.399,-6.27 0,0 -0.569,-6.82 4.04,-13.94 0,0 -11.979,-1.81 -15.559,-3.77 0,0 -7.2,16.18 -21.88,23.98 M 62.779,-35.38 34.39,13.51 C 33.91,8.24 32.779,3.59 32.779,3.59 c 0,0 -9.09,-7.16 -47.609,5.61 0,0 24.769,-20.71 29.03,-36.39 0,0 0.55,-3.54 -2.18,-7.09 z M 33.939,36.71 C 16.56,37.58 1.399,30.9 0.52,30.51 15.229,38.29 22.45,54.44 22.45,54.44 26.029,52.48 38.01,50.64 38.01,50.64 33.39,43.53 33.939,36.71 33.939,36.71 M 9.55,64.73 c 1.54,-1.37 3.099,-3.02 4.65,-5.01 0,0 2.32,-10.84 -27.46,-37.15 0.97,0.22 38.96,9.03 44.88,5.02 2.22,-1.5 2.949,-5.17 2.989,-9.19 L 61.75,66.56 Z M 5.779,15.01 -3.41,21.59 -21.8,16.46 l -0.19,1.45 12.48,11.42 0.289,12.58 -11.509,-4.93 -4.161,-18.2 h -1.33 l -4.189,17.52 -11.521,6.77 -0.09,-13.16 13.451,-11.32 -0.1,-2.32 -18.971,5.03 -8.799,-6.68 11.509,-5.81 15.101,4.36 0.29,-2.03 -12.101,-9.29 0.58,-14.42 11.521,5.32 3.189,20.61 1.361,-0.06 4.45,-19.29 11.71,-6.29 -0.481,13.06 -13.069,12 L -4.67,9.1 Z M -24.51,-57.38 c 0,0 -7.551,9.48 -11.03,11.61 0,0 10.45,14.33 9.87,30.97 0,0 1.55,-17.03 11.23,-32.13 0,0 -6.201,-2.9 -10.07,-10.45 m 18.97,16.07 c 0,0 -14.9,7.16 -19.94,44.32 0,0 0.78,-18.78 -16.64,-43.94 0,0 -3.67,-0.15 -8.151,0.76 l 25.05,-45.79 24.79,45.29 c -1.54,-0.29 -3.229,-0.51 -5.109,-0.64 m -19.681,86.46 c 0,0 -1.289,17.05 -10.739,32.29 0,0 6.239,2.81 10.23,10.3 0,0 7.4,-9.6 10.85,-11.78 0,0 -10.67,-14.16 -10.341,-30.81 m 0,71.99 -28.529,-49.3 c 4.359,2.5 8.85,4.58 11.05,4.07 5.03,-1.16 14.32,-24.77 17.03,-48 0,0 6.19,37.36 17.609,47.03 0,0 3.09,0.73 7.571,-0.52 z m -59.13,-80.4 c 0,0 0.561,6.82 -4.069,13.93 0,0 11.98,1.84 15.56,3.8 0,0 7.23,-16.16 21.929,-23.93 -0.88,0.39 -16.04,7.07 -33.42,6.2 m 19.391,23.17 c 0.489,2.49 0.71,3.64 0.8,4.02 -0.111,-0.64 -0.57,-3.03 -0.6,-3.23 0.23,0.16 3.96,2.86 8.39,5.58 l -57.62,-0.76 27.809,-46.42 3.41,9.07 c 0,0 37.13,0.58 47.981,-8.11 -0.94,0.92 -31.88,31.09 -30.17,39.85 m -9.11,-84.92 c 0,0 -5.491,4.08 -13.97,3.92 0,0 4.79,11.14 5.01,15.22 0,0 17.54,-2.44 31.92,5.92 -0.85,-0.56 -14.51,-9.88 -22.96,-25.06 m 36.92,33.02 c -1.5,-0.66 -29.08,-12.55 -46.97,-5.78 0,0 -1.57,3.21 -2.72,7.09 l -27.15,-44.18 51.79,0.66 c -1.231,1.3 -2.25,2.85 -2.95,4.69 0,0 7.91,25.69 28,37.52"
             style="fill:#b2e8dc;fill-opacity:1;fill-rule:nonzero;stroke:none"
             id="path397-7-9-3" />
        </g>
        <g
           id="g407-3-6-4"
           transform="translate(1742.2109,738.28208)">
          <path
             d="m 0,0 -17.71,3.68 13.069,-12 0.481,-13.06 -11.71,6.29 -4.45,19.29 -1.361,0.06 -3.189,-20.61 -11.521,-5.32 -0.58,14.42 12.101,9.29 -0.29,2.03 -15.101,-4.36 -11.51,5.81 8.8,6.68 18.971,-5.03 0.1,2.32 -13.451,11.32 0.09,13.16 11.521,-6.77 4.189,-17.52 h 1.33 l 4.16,18.2 11.51,4.93 L -4.84,20.23 -17.32,8.81 -17.13,7.36 1.26,12.49 10.449,5.91 Z"
             style="fill:#b2e8dc;fill-opacity:1;fill-rule:nonzero;stroke:none"
             id="path405-7-1-6" />
        </g>
      </g>
      <g
         id="g787-9-8-7"
         transform="matrix(0.35277777,0,0,-0.35277777,-895.40785,294.03491)">
        <g
           id="g342-7-0-7"
           transform="translate(2057.8125,1218.8727)">
          <path
             d="m 0,0 -17.416,-22.727 c -1.032,-1.346 -1.222,-3.149 -0.502,-4.685 4.725,-10.091 26.182,-49.04 96.06,-102.672 0.852,-0.655 2.028,-0.708 2.935,-0.131 6.783,4.312 35.171,23.651 65.88,63.335 0.666,0.861 0.977,1.949 0.854,3.031 -0.49,4.325 -2.917,16.78 -14.886,39.236 -0.48,0.899 -1.705,1.053 -2.398,0.305 -6.428,-6.954 -33.409,-35.392 -49.69,-41.045 0,0 -16.351,10.664 -22.03,27.223 -0.451,1.312 -0.107,2.769 0.875,3.75 l 22.187,22.188 c 0.983,0.982 -3.862,5.773 -6.235,8.008 -0.714,0.673 -1.804,0.726 -2.58,0.127 -4.917,-3.8 -22.178,-17.235 -30.243,-24.761 -2.665,-2.486 -3.273,-6.468 -1.465,-9.632 5.052,-8.845 17.314,-28.464 37.814,-50.387 0,0 28.328,21.406 45.635,37.518 0.068,0.064 0.179,0.015 0.181,-0.079 0.027,-2.395 -1.09,-23.016 -44.049,-69.791 -0.459,-0.5 -1.253,-0.502 -1.702,0.008 C 71.767,-112.709 16.747,-49.088 3.016,-0.577 2.63,0.787 0.862,1.125 0,0"
             style="fill:#e4b044;fill-opacity:1;fill-rule:nonzero;stroke:none"
             id="path344-8-3-5" />
        </g>
        <g
           id="g346-4-7-5"
           transform="translate(2217.8632,1167.3663)">
          <path
             d="m 0,0 c 3.764,3.898 12.082,12.988 17.064,22.053 1.394,2.535 1.366,5.604 0.021,8.165 -5.968,11.367 -27.644,45.768 -92.324,97.846 -2.893,2.329 -7.001,2.407 -9.971,0.177 -10.918,-8.198 -37.259,-29.197 -57.882,-55.414 -3.514,-4.468 -4.812,-10.291 -3.47,-15.816 1.601,-6.59 4.996,-16.647 12.189,-30.105 1.09,-2.038 3.845,-2.441 5.457,-0.785 8.058,8.277 30.87,29.844 43.896,37.71 3.106,1.875 5.581,2.19 8.258,-0.258 5.616,-5.138 15.314,-15.859 17.871,-25.549 0,0 2.663,-3.981 -20.419,-22.09 -1.982,-1.555 -2.301,-4.438 -0.696,-6.38 l 3.403,-4.116 c 1.112,-1.343 3.073,-1.59 4.476,-0.556 6.452,4.756 23.634,17.778 30.87,26.773 1.189,1.478 1.363,3.52 0.456,5.186 -4.348,7.988 -18.452,32.462 -36.391,48.888 -1.727,1.58 -4.351,1.65 -6.18,0.189 -9.733,-7.774 -39.005,-31.252 -41.583,-34.475 0,0 -2.903,19.549 44.516,70.839 0,0 53.695,-54.701 77.57,-121.647 C -2.437,-0.578 -0.894,-0.926 0,0"
             style="fill:#e4b044;fill-opacity:1;fill-rule:nonzero;stroke:none"
             id="path348-9-6-2" />
        </g>
      </g>
    </g>
  </g>
</svg>
