<?xml version="1.0" encoding="UTF-8" standalone="no"?>
<svg
   xmlns:dc="http://purl.org/dc/elements/1.1/"
   xmlns:cc="http://creativecommons.org/ns#"
   xmlns:rdf="http://www.w3.org/1999/02/22-rdf-syntax-ns#"
   xmlns:svg="http://www.w3.org/2000/svg"
   xmlns="http://www.w3.org/2000/svg"
   xmlns:sodipodi="http://sodipodi.sourceforge.net/DTD/sodipodi-0.dtd"
   xmlns:inkscape="http://www.inkscape.org/namespaces/inkscape"
   width="533.40002mm"
   height="533.40002mm"
   viewBox="0 0 533.40002 533.40002"
   version="1.1"
   id="svg1614"
   inkscape:version="1.0.1 (3bc2e813f5, 2020-09-07)"
   sodipodi:docname="mic_logo.svg">
  <defs
     id="defs1608" />
  <sodipodi:namedview
     id="base"
     pagecolor="#ffffff"
     bordercolor="#666666"
     borderopacity="1.0"
     inkscape:pageopacity="0.0"
     inkscape:pageshadow="2"
     inkscape:zoom="0.16778674"
     inkscape:cx="915.81548"
     inkscape:cy="751.80365"
     inkscape:document-units="mm"
     inkscape:current-layer="layer1"
     inkscape:document-rotation="0"
     showgrid="false"
     fit-margin-top="0"
     fit-margin-left="0"
     fit-margin-right="0"
     fit-margin-bottom="0"
     inkscape:window-width="1366"
     inkscape:window-height="705"
     inkscape:window-x="-8"
     inkscape:window-y="32"
     inkscape:window-maximized="1" />
  <metadata
     id="metadata1611">
    <rdf:RDF>
      <cc:Work
         rdf:about="">
        <dc:format>image/svg+xml</dc:format>
        <dc:type
           rdf:resource="http://purl.org/dc/dcmitype/StillImage" />
        <dc:title></dc:title>
      </cc:Work>
    </rdf:RDF>
  </metadata>
  <g
     inkscape:label="Capa 1"
     inkscape:groupmode="layer"
     id="layer1"
     transform="translate(101.90239,88.29525)">
    <g
       id="g2191"
       transform="translate(1.6707031e-5,4.6707031e-5)">
      <path
         style="fill:#b7e3f9;stroke-width:0.264583"
         d="m -79.346957,305.60349 0.06644,-117.01227 H 37.665324 154.61116 v 116.94584 116.94583 l -117.012279,0.0664 -117.01228,0.0664 z m 254.321217,116.68097 -0.12552,-0.33073 0.0677,-116.68126 0.0677,-116.68125 h 116.94584 116.94583 l 0.0664,117.01198 0.0664,117.01199 H 292.05419 175.09975 Z M -79.23612,168.1745 -79.412806,167.99782 V 51.095777 -65.806259 l 117.011984,0.06644 117.011982,0.06644 V 51.272464 168.2183 l -116.835296,0.0664 -116.835299,0.0665 z m 254.2643,-3e-4 -0.17639,-0.17638 V 51.096074 -65.805666 H 291.92992 409.00805 V 51.272464 168.35059 H 292.10631 175.20456 Z"
         id="path2203" />
      <path
         style="fill:#ebeab8;stroke-width:0.264583"
         d="m 174.97426,422.28446 -0.12552,-0.33073 0.0677,-116.68126 0.0677,-116.68125 h 116.94584 116.94583 l 0.0664,117.01198 0.0664,117.01199 H 292.05419 175.09975 Z M -79.148222,305.53706 V 188.72351 H 37.665324 154.47887 V 305.53706 422.3506 H 37.665324 -79.148222 Z m -0.0879,-137.36256 -0.176686,-0.17668 V 51.095777 -65.806259 l 117.011984,0.06644 117.011984,0.06644 V 51.272464 168.2183 l -116.835298,0.0664 -116.835299,0.0665 z m 254.264302,-3e-4 -0.17639,-0.17638 V 51.096074 -65.805666 H 291.92992 409.00805 V 51.272464 168.35059 H 292.10631 175.20456 Z"
         id="path2201" />
      <path
         style="fill:#feb907;stroke-width:0.264583"
         d="M -79.148222,305.53706 V 188.72351 H 37.665324 154.47887 V 305.53706 422.3506 H 37.665324 -79.148222 Z m 254.264592,0 V 188.72351 H 291.92992 408.74346 V 305.53706 422.3506 H 291.92992 175.11637 Z M -79.148222,51.272464 V -65.541082 H 37.665324 154.47887 V 51.272464 168.08601 H 37.665324 -79.148222 Z m 254.264592,0 V -65.541082 H 291.92992 408.74346 V 51.272464 168.08601 H 291.92992 175.11637 Z"
         id="path2199" />
      <path
         style="fill:#04a5ef;stroke-width:0.264583"
         d="M -79.148222,305.53706 V 188.72351 H 37.665324 154.47887 V 305.53706 422.3506 H 37.665324 -79.148222 Z m 0,-254.264596 V -65.541082 H 37.665324 154.47887 V 51.272464 168.08601 H 37.665324 -79.148222 Z m 254.264592,0 V -65.541082 H 291.92992 408.74346 V 51.272464 168.08601 H 291.92992 175.11637 Z"
         id="path2197" />
      <path
         style="fill:#f25224;stroke-width:0.264583"
         d="M -79.148222,51.272464 V -65.541082 H 37.665324 154.47887 V 51.272464 168.08601 H 37.665324 -79.148222 Z m 254.264592,0 V -65.541082 H 291.92992 408.74346 V 51.272464 168.08601 H 291.92992 175.11637 Z"
         id="path2195" />
      <path
         style="fill:#80bb05;stroke-width:0.264583"
         d="M 175.11637,51.272464 V -65.541082 H 291.92992 408.74346 V 51.272464 168.08601 H 291.92992 175.11637 Z"
         id="path2193" />
    </g>
  </g>
</svg>
